<?xml version="1.0" standalone="no"?>
<!DOCTYPE svg PUBLIC "-//W3C//DTD SVG 20010904//EN"
 "http://www.w3.org/TR/2001/REC-SVG-20010904/DTD/svg10.dtd">
<svg version="1.0" xmlns="http://www.w3.org/2000/svg"
 width="800.000000pt" height="500.000000pt" viewBox="0 0 800.000000 500.000000"
 preserveAspectRatio="xMidYMid meet">

<g transform="translate(0.000000,500.000000) scale(0.100000,-0.100000)"
fill="#ea7691" stroke="none">
<path d="M6034 3531 c-47 -4 -89 -13 -100 -21 -10 -8 -77 -73 -148 -144 -72
-70 -158 -149 -191 -175 l-60 -46 -280 -6 c-296 -7 -361 -16 -399 -58 -9 -10
-37 -22 -62 -26 l-44 -6 0 -70 c0 -60 4 -75 25 -103 21 -28 25 -43 25 -107 0
-74 0 -75 -30 -86 -36 -14 -40 -47 -8 -64 12 -7 64 -14 115 -17 108 -6 126 3
144 72 35 140 39 147 74 162 38 15 224 19 308 5 77 -13 117 -64 163 -206 l22
-70 691 -3 691 -2 31 62 c40 80 76 128 95 128 12 0 9 -8 -12 -32 -60 -72 -71
-165 -30 -253 42 -92 125 -145 225 -145 94 1 176 53 221 140 43 85 34 168 -27
253 -32 45 -33 48 -11 42 35 -11 46 -23 64 -73 10 -26 21 -51 25 -55 4 -5 62
-9 129 -8 103 0 126 3 142 18 19 17 19 18 -6 39 -21 19 -24 28 -19 59 11 70
-53 254 -109 312 -60 62 -188 102 -376 118 l-83 7 -31 62 c-45 89 -72 121
-150 172 -133 89 -320 124 -683 129 -137 2 -287 0 -331 -4z m219 -81 l90 0 -6
-112 c-4 -62 -10 -129 -13 -150 l-6 -36 -267 -4 c-146 -2 -268 -2 -270 -1 -2
2 43 73 100 159 l104 156 89 -6 c49 -3 130 -6 179 -6z m-349 -12 c-27 -45
-147 -203 -186 -246 -40 -45 -51 -52 -83 -52 l-38 0 149 154 c134 138 180 181
158 144z m712 -3 c173 -17 190 -24 232 -86 27 -39 26 -91 -2 -150 l-17 -36
-187 -6 c-138 -4 -189 -3 -194 6 -4 7 -8 60 -8 118 0 59 -3 121 -6 138 -8 37
-24 36 182 16z m749 -734 c97 -56 91 -227 -9 -275 -113 -53 -236 18 -236 137
0 131 130 205 245 138z"/>
<path d="M5227 2829 c-54 -13 -87 -32 -129 -76 -97 -101 -94 -247 8 -345 50
-47 106 -71 169 -71 131 0 248 117 248 248 0 150 -154 277 -296 244z m132
-107 c45 -24 71 -74 71 -137 0 -98 -57 -155 -155 -155 -98 0 -155 57 -155 155
0 98 57 155 155 155 30 0 64 -8 84 -18z"/>
<path d="M256 2098 l-106 -123 0 -208 0 -208 92 -104 91 -105 176 -2 176 -3 0
-85 0 -85 -85 0 -85 0 -3 68 -3 67 -179 0 -180 0 0 -152 1 -153 107 -122 107
-123 235 0 236 0 112 127 112 128 0 210 0 210 -96 103 -96 102 -179 0 -180 0
3 78 3 77 83 3 82 3 0 -61 0 -60 185 0 185 0 0 144 0 143 -111 127 -110 126
-234 0 -233 0 -106 -122z m637 -49 l87 -101 0 -99 0 -99 -120 0 -120 0 0 37
c0 24 -8 45 -22 60 -20 21 -30 23 -122 23 -89 0 -102 -2 -123 -22 -21 -20 -23
-30 -23 -127 0 -94 2 -107 22 -128 21 -22 26 -23 198 -23 l177 0 72 -79 71
-79 0 -189 0 -189 -90 -102 -91 -102 -209 0 -208 0 -91 103 -90 102 -1 103 0
102 120 0 120 0 0 -42 c1 -31 8 -51 25 -70 23 -27 27 -28 127 -28 l103 0 28
34 c25 32 27 42 27 127 0 83 -2 95 -26 126 l-25 33 -177 1 -177 1 -72 83 -73
83 0 179 0 178 88 102 87 103 210 0 210 0 88 -101z"/>
<path d="M1080 1895 l0 -325 150 0 150 0 0 130 0 130 25 0 25 0 0 -330 0 -330
-60 0 -60 0 0 -205 0 -205 305 0 305 0 0 205 0 205 -65 0 -65 0 2 328 3 327
22 3 c22 3 22 1 25 -125 l3 -128 150 0 150 0 3 323 2 322 -535 0 -535 0 0
-325z m1005 0 l0 -250 -90 0 -90 0 -3 128 -3 128 -82 -3 -82 -3 -3 -397 -2
-397 62 -3 63 -3 3 -132 3 -133 -246 0 -245 0 0 135 0 135 60 0 60 0 0 400 0
400 -85 0 -85 0 0 -130 0 -130 -90 0 -90 0 0 255 0 255 473 -2 472 -3 0 -250z"/>
<path d="M2286 2088 l-116 -132 0 -466 0 -465 117 -133 116 -132 223 0 223 0
115 129 116 129 0 471 0 472 -112 129 -113 130 -227 0 -227 0 -115 -132z m638
-47 l96 -109 0 -442 0 -441 -97 -110 -97 -109 -200 1 -201 0 -97 112 -98 112
0 435 0 435 98 112 97 113 202 0 201 0 96 -109z"/>
<path d="M2497 1842 l-27 -28 0 -323 0 -322 26 -35 26 -34 102 0 102 0 32 33
32 33 0 319 0 318 -26 34 -25 33 -108 0 c-104 0 -108 -1 -134 -28z m218 -357
l0 -310 -78 -3 c-50 -2 -84 1 -93 9 -11 9 -14 66 -14 309 0 163 3 300 7 304 4
4 46 5 93 4 l85 -3 0 -310z"/>
<path d="M3152 2013 l3 -208 53 -3 52 -3 0 -315 0 -314 -55 0 -55 0 0 -205 0
-205 245 0 245 0 0 205 0 205 -30 0 -30 0 1 118 c0 64 3 113 5 107 2 -5 64
-149 138 -320 l134 -310 171 -3 171 -2 0 520 0 520 55 0 55 0 0 210 0 210
-245 0 -245 0 2 -207 3 -208 33 -3 32 -3 0 -95 c0 -52 -2 -94 -4 -94 -2 0 -59
137 -127 305 l-123 305 -243 0 -243 0 2 -207z m613 -280 c93 -230 172 -422
177 -428 4 -5 8 120 8 277 l0 287 -32 3 -33 3 -3 138 -3 137 186 0 185 0 0
-140 0 -140 -55 0 -55 0 0 -520 0 -521 -122 3 -122 3 -176 406 c-96 223 -180
416 -187 430 -9 19 -12 -37 -12 -273 l-1 -298 30 0 30 0 0 -135 0 -135 -185 0
-186 0 3 133 3 132 53 3 52 3 0 384 0 384 -52 3 -53 3 -3 138 -3 137 194 0
194 0 168 -417z"/>
<path d="M4753 2078 l-123 -142 0 -445 1 -446 125 -142 125 -143 218 0 217 0
107 123 107 122 0 203 0 202 -177 -2 -178 -3 -5 -115 -5 -115 -75 -3 c-62 -2
-77 0 -87 14 -17 23 -19 565 -3 595 9 16 22 19 90 19 l79 0 3 -102 3 -103 178
-3 177 -2 0 193 0 194 -106 121 -105 122 -222 0 -222 0 -122 -142z m630 -30
l87 -101 0 -144 0 -143 -115 0 -115 0 0 74 c0 66 -3 78 -26 105 -26 31 -26 31
-127 31 l-102 0 -27 -34 -28 -35 0 -317 0 -318 32 -33 c32 -33 33 -33 127 -33
l96 0 28 34 c25 32 27 42 27 120 l0 86 115 0 115 0 0 -152 0 -153 -91 -103
-90 -102 -192 0 -192 0 -102 118 -103 117 0 427 0 427 101 115 100 116 197 0
197 0 88 -102z"/>
<path d="M5720 2010 l0 -210 40 0 c26 0 40 -5 40 -12 -1 -7 -29 -148 -64 -313
l-62 -300 -60 -5 -59 -5 -3 -203 -2 -202 250 0 250 0 0 205 0 205 -31 0 c-26
0 -30 3 -27 23 3 21 8 22 89 25 86 3 87 2 91 -23 5 -23 2 -25 -28 -25 l-34 0
0 -205 0 -205 290 0 290 0 -2 203 -3 202 -66 3 -65 3 -88 477 c-49 262 -93
498 -98 525 l-10 47 -319 0 -319 0 0 -210z m594 123 c2 -10 46 -246 97 -525
l93 -508 58 0 58 0 0 -135 0 -135 -225 0 -225 0 0 135 0 135 40 0 c47 0 46 -3
23 108 l-17 83 -135 -3 -135 -3 -18 -85 c-9 -47 -17 -88 -18 -92 0 -5 18 -8
40 -8 l40 0 0 -135 0 -135 -185 0 -185 0 0 135 0 135 50 0 c43 0 50 3 55 23 6
25 155 740 155 744 0 1 -21 3 -47 5 l-48 3 -3 138 -3 137 265 0 c244 0 265 -1
270 -17z"/>
<path d="M6022 1682 c-29 -147 -53 -270 -52 -274 0 -5 50 -8 110 -8 85 0 110
3 110 13 0 17 -108 528 -112 533 -2 2 -27 -117 -56 -264z m79 -133 l16 -79
-40 0 c-27 0 -38 4 -34 13 2 6 10 45 17 85 7 39 16 69 19 66 3 -3 13 -41 22
-85z"/>
<path d="M6712 2013 l3 -208 53 -3 52 -3 0 -314 0 -314 -52 -3 -53 -3 -3 -202
-2 -203 265 0 265 0 -2 203 -3 202 -28 3 -28 3 3 82 c3 80 4 82 29 85 24 3 29
-3 58 -75 36 -89 36 -93 16 -93 -13 0 -15 -29 -15 -205 l0 -205 250 0 250 0
-2 203 -3 202 -45 5 -44 5 -43 105 c-23 58 -42 111 -43 118 0 8 29 48 65 90
l65 75 0 206 0 206 -106 123 -106 122 -399 0 -399 0 2 -207z m860 34 l88 -102
0 -176 0 -175 -74 -87 -74 -87 63 -157 c62 -156 63 -158 96 -163 l34 -5 3
-132 3 -133 -191 0 -190 0 0 134 0 135 34 3 34 3 -61 153 -60 152 -78 0 -79 0
0 -154 0 -155 28 -3 27 -3 3 -132 3 -133 -206 0 -206 0 3 133 3 132 53 3 52 3
0 384 0 384 -52 3 -53 3 -3 138 -3 137 358 0 358 0 87 -103z"/>
<path d="M7120 1725 l0 -145 129 0 130 0 20 29 c18 24 21 44 21 119 0 75 -3
93 -21 116 -20 26 -22 26 -150 26 l-129 0 0 -145z m238 3 l-3 -73 -87 -3 -88
-3 0 76 0 75 90 0 91 0 -3 -72z"/>
<path d="M4273 1053 c-23 -9 -14 -28 32 -73 25 -24 45 -47 45 -51 0 -4 -15 -9
-34 -11 -31 -3 -36 -1 -41 22 -22 90 -26 100 -45 100 -25 0 -25 6 4 -103 42
-156 49 -172 74 -175 29 -4 98 40 107 69 7 21 7 20 36 -7 26 -24 31 -26 43
-14 13 13 0 30 -97 132 -63 65 -118 114 -124 111z m95 -175 c20 -20 13 -43
-19 -62 -17 -10 -32 -16 -34 -14 -2 1 -6 19 -10 40 -6 30 -4 37 12 41 31 8 39
7 51 -5z"/>
</g>
</svg>
